# xmcd
#
# Track frame offsets:
#	150
#	12395
#	32784
#	43394
#	58629
#	63073
#	92887
#	116069
#	120986
#	147759
#	167533
#	171826
#	197839
#	206954
#	230273
#	232810
#	257866
#	275098
#
# Disc length: 3899 seconds
#
# Revision: 0
# Processed by: cddbd v1.5.2PL0 Copyright (c) Steve Scherf et al.
# Submitted via: EasyCDDAExtractor 15.2.5.1
#
DISCID=030f3912
DTITLE=Fred Hammond - God, Love and Romance
DYEAR=2012
DGENRE=Gospel
TTITLE0=Write Something For Us 
TTITLE1=When I Come Home To You
TTITLE2=Jacob's Love
TTITLE3=I'm In Love With You
TTITLE4=How A Man Loves A Woman
TTITLE5=You Are My Love Come True
TTITLE6=The Proposal
TTITLE7=Love Will Find You
TTITLE8=Face It All
TTITLE9=Easier
TTITLE10=SOS 4:7 - Prov 31:10-12
TTITLE11=You're So Beautiful
TTITLE12=Pulling Up At The Crib
TTITLE13=My Lady And Myself
TTITLE14=Give It Up For The Band
TTITLE15=My Love Is Real (feat Frank McCombe)
TTITLE16=Radio Fred
TTITLE17=One More Try
EXTD=
EXTT0=
EXTT1=
EXTT2=
EXTT3=
EXTT4=
EXTT5=
EXTT6=
EXTT7=
EXTT8=
EXTT9=
EXTT10=
EXTT11=
EXTT12=
EXTT13=
EXTT14=
EXTT15=
EXTT16=
EXTT17=
PLAYORDER=
